<svg width="333" height="748" viewBox="0 0 333 748" fill="none" xmlns="http://www.w3.org/2000/svg">
<path d="M609.548 463.165C609.548 514.807 596.489 562.414 570.37 605.987C545.069 649.559 510.381 684.256 466.306 710.077C422.232 735.091 374.077 747.598 321.841 747.598C269.605 747.598 221.449 735.091 177.375 710.077C133.301 684.256 98.2047 649.559 72.0866 605.987C46.7847 562.414 34.1338 514.807 34.1338 463.165V154.525C34.1338 102.883 46.7847 55.2758 72.0866 11.7031C98.2047 -31.8696 133.301 -66.1629 177.375 -91.1769C221.449 -116.998 269.605 -129.908 321.841 -129.908C374.077 -129.908 422.232 -116.998 466.306 -91.1769C510.381 -66.1629 545.069 -31.8696 570.37 11.7031C596.489 55.2758 609.548 102.883 609.548 154.525V463.165ZM78.208 463.165C78.208 490.599 83.5133 518.841 94.1237 547.89L526.296 26.2274C504.259 -7.66253 475.284 -34.6937 439.372 -54.8663C403.46 -75.0388 364.283 -85.1251 321.841 -85.1251C277.766 -85.1251 236.957 -74.232 199.412 -52.4456C162.684 -31.4661 133.301 -2.41766 111.264 34.6998C89.2266 71.0104 78.208 110.952 78.208 154.525V463.165ZM565.473 154.525C565.473 127.09 560.168 98.8486 549.558 69.8001L117.385 591.462C139.422 626.159 168.397 653.594 204.309 673.766C240.222 693.939 279.399 704.025 321.841 704.025C365.915 704.025 406.316 693.132 443.045 671.345C480.59 649.559 510.381 620.511 532.418 584.2C554.455 547.083 565.473 506.738 565.473 463.165V154.525Z" fill="#9F00FF"/>
<path d="M575.414 393.073C575.414 444.715 562.355 492.322 536.237 535.895C510.935 579.467 476.247 614.164 432.172 639.985C388.098 664.999 339.943 677.506 287.707 677.506C235.471 677.506 187.316 664.999 143.241 639.985C99.1671 614.164 64.0709 579.467 37.9528 535.895C12.6509 492.322 0 444.715 0 393.073V84.433C0 32.7912 12.6509 -14.816 37.9528 -58.3887C64.0709 -101.961 99.1671 -136.255 143.241 -161.269C187.316 -187.09 235.471 -200 287.707 -200C339.943 -200 388.098 -187.09 432.172 -161.269C476.247 -136.255 510.935 -101.961 536.237 -58.3887C562.355 -14.816 575.414 32.7912 575.414 84.433V393.073ZM44.0742 393.073C44.0742 420.508 49.3795 448.749 59.9899 477.798L492.162 -43.8644C470.125 -77.7543 441.151 -104.786 405.238 -124.958C369.326 -145.131 330.149 -155.217 287.707 -155.217C243.633 -155.217 202.823 -144.324 165.278 -122.537C128.55 -101.558 99.167 -72.5095 77.1299 -35.392C55.0928 0.918594 44.0742 40.8602 44.0742 84.433V393.073ZM531.34 84.433C531.34 56.9983 526.034 28.7568 515.424 -0.291718L83.2514 521.37C105.288 556.067 134.263 583.502 170.176 603.674C206.088 623.847 245.265 633.933 287.707 633.933C331.781 633.933 372.183 623.04 408.911 601.254C446.456 579.467 476.247 550.419 498.284 514.108C520.321 476.991 531.34 436.646 531.34 393.073V84.433Z" fill="#FFE302"/>
<path d="M592.467 416.977C592.467 468.196 579.408 515.413 553.29 558.628C527.989 601.844 493.3 636.256 449.226 661.866C405.152 686.675 356.997 699.079 304.761 699.079C252.524 699.079 204.369 686.675 160.295 661.866C116.221 636.256 81.1246 601.844 55.0065 558.628C29.7046 515.413 17.0537 468.196 17.0537 416.977V110.867C17.0537 59.6487 29.7046 12.4317 55.0065 -30.7838C81.1246 -73.9994 116.221 -108.012 160.295 -132.821C204.369 -158.43 252.524 -171.234 304.761 -171.234C356.997 -171.234 405.152 -158.43 449.226 -132.821C493.3 -108.012 527.989 -73.9994 553.29 -30.7838C579.408 12.4317 592.467 59.6487 592.467 110.867V416.977ZM61.1279 416.977C61.1279 444.187 66.4332 472.197 77.0437 501.008L509.216 -16.3786C487.179 -49.9907 458.204 -76.8003 422.292 -96.8075C386.38 -116.815 347.202 -126.818 304.761 -126.818C260.686 -126.818 219.877 -116.014 182.332 -94.4067C145.604 -73.5992 116.221 -44.7888 94.1836 -7.97559C72.1465 28.0373 61.1279 67.6516 61.1279 110.867V416.977ZM548.393 110.867C548.393 83.6574 543.088 55.6474 532.478 26.837L100.305 544.223C122.342 578.636 151.317 605.845 187.229 625.853C223.142 645.86 262.319 655.863 304.761 655.863C348.835 655.863 389.236 645.059 425.965 623.452C463.51 601.844 493.3 573.034 515.338 537.021C537.375 500.207 548.393 460.193 548.393 416.977V110.867Z" fill="#333333"/>
<path d="M592.467 436.727C592.467 487.946 579.409 535.163 553.29 578.378C527.989 621.594 493.3 656.006 449.226 681.616C405.152 706.425 356.997 718.829 304.761 718.829C252.524 718.829 204.369 706.425 160.295 681.616C116.221 656.006 81.1246 621.594 55.0065 578.378C29.7046 535.163 17.0537 487.946 17.0537 436.727V130.617C17.0537 79.3987 29.7046 32.1817 55.0065 -11.0338C81.1246 -54.2494 116.221 -88.2616 160.295 -113.071C204.369 -138.68 252.524 -151.484 304.761 -151.484C356.997 -151.484 405.152 -138.68 449.226 -113.071C493.3 -88.2616 527.989 -54.2494 553.29 -11.0338C579.409 32.1817 592.467 79.3987 592.467 130.617V436.727ZM61.1279 436.727C61.1279 463.937 66.4332 491.947 77.0437 520.758L509.216 3.37138C487.179 -30.2407 458.204 -57.0503 422.292 -77.0575C386.38 -97.0648 347.202 -107.068 304.761 -107.068C260.686 -107.068 219.877 -96.2645 182.332 -74.6567C145.604 -53.8492 116.221 -25.0388 94.1836 11.7744C72.1465 47.7873 61.1279 87.4016 61.1279 130.617V436.727ZM548.393 130.617C548.393 103.407 543.088 75.3974 532.478 46.587L100.305 563.973C122.342 598.386 151.317 625.595 187.229 645.603C223.142 665.61 262.319 675.613 304.761 675.613C348.835 675.613 389.236 664.809 425.965 643.202C463.51 621.594 493.3 592.784 515.338 556.771C537.375 519.957 548.393 479.943 548.393 436.727V130.617Z" fill="#333333"/>
</svg>
