<svg width="27" height="27" viewBox="0 0 27 27" fill="none" xmlns="http://www.w3.org/2000/svg">
<path d="M13.5 16.875C11.43 16.875 11.25 15.9075 11.25 15.75H9C9 16.785 9.7425 18.6187 12.375 19.035V20.25H14.625V19.035C16.875 18.6525 18 17.2013 18 15.75C18 14.49 17.415 12.375 13.5 12.375C11.25 12.375 11.25 11.6663 11.25 11.25C11.25 10.8337 12.0375 10.125 13.5 10.125C14.9625 10.125 15.0637 10.845 15.075 11.25H17.325C17.3098 10.4836 17.0341 9.74521 16.5434 9.15632C16.0527 8.56744 15.3761 8.16316 14.625 8.01V6.75H12.375V7.97625C10.125 8.3475 9 9.79875 9 11.25C9 12.51 9.585 14.625 13.5 14.625C15.75 14.625 15.75 15.39 15.75 15.75C15.75 16.11 15.0525 16.875 13.5 16.875Z" fill="white"/>
<path d="M5.625 2.25H2.25V4.5H4.5V23.625C4.5 23.9234 4.61853 24.2095 4.8295 24.4205C5.04048 24.6315 5.32663 24.75 5.625 24.75H21.375C21.6734 24.75 21.9595 24.6315 22.1705 24.4205C22.3815 24.2095 22.5 23.9234 22.5 23.625V4.5H24.75V2.25H5.625ZM20.25 22.5H6.75V4.5H20.25V22.5Z" fill="white"/>
</svg>
