<svg width="16" height="16" viewBox="0 0 16 16" fill="none" xmlns="http://www.w3.org/2000/svg">
<path d="M8 16C12.4183 16 16 12.4183 16 8C16 3.58172 12.4183 0 8 0C3.58172 0 0 3.58172 0 8C0 12.4183 3.58172 16 8 16Z" fill="#828282"/>
<path d="M10.8225 8.20836C11.0996 7.72962 11.5469 7.72962 11.824 8.20836L13.55 11.2383C13.8272 11.717 13.6004 12.1076 13.0461 12.1076H9.56892C9.02089 12.1076 8.79412 11.717 9.06499 11.2383L10.8225 8.20836ZM7.48388 2.37529C7.76105 1.89655 8.20199 1.89655 8.47916 2.37529L8.86341 3.0682L9.7705 4.6619C9.99097 5.11545 9.99097 5.65088 9.7705 6.10442L6.72798 11.3769C6.45081 11.8052 5.99097 12.0761 5.48073 12.1076H2.95475C2.40042 12.1076 2.17365 11.7233 2.45081 11.2383L7.48388 2.37529Z" fill="white"/>
</svg>
