<svg width="16" height="15" viewBox="0 0 16 15" fill="none" xmlns="http://www.w3.org/2000/svg">
<path d="M12.0738 4.39825C11.7786 4.21563 11.3948 4.21563 11.0701 4.39825L8.7675 5.79839L7.20293 6.71154L4.90037 8.11165C4.60516 8.29427 4.2214 8.29427 3.89668 8.11165L2.06642 7.01587C1.77122 6.83325 1.56458 6.49846 1.56458 6.1332V3.97212C1.56458 3.60687 1.7417 3.27205 2.06642 3.08943L3.86715 2.02411C4.16236 1.84148 4.54612 1.84148 4.87084 2.02411L6.67159 3.08943C6.96677 3.27205 7.17343 3.60687 7.17343 3.97212V5.37226L8.738 4.42869V3.02856C8.738 2.6633 8.5609 2.32848 8.23616 2.14586L4.90037 0.13697C4.60516 -0.0456566 4.2214 -0.0456566 3.89668 0.13697L0.501845 2.14586C0.177122 2.32848 0 2.6633 0 3.02856V7.07678C0 7.44202 0.177122 7.77687 0.501845 7.95949L3.89668 9.96837C4.19187 10.151 4.57564 10.151 4.90037 9.96837L7.20293 8.59866L8.7675 7.6551L11.0701 6.28539C11.3653 6.10277 11.7491 6.10277 12.0738 6.28539L13.8745 7.35071C14.1697 7.53333 14.3764 7.86818 14.3764 8.23342V10.3945C14.3764 10.7598 14.1993 11.0945 13.8745 11.2772L12.0738 12.3729C11.7786 12.5556 11.3948 12.5556 11.0701 12.3729L9.26939 11.3076C8.97416 11.125 8.7675 10.7902 8.7675 10.4249V9.02481L7.20293 9.96837V11.3685C7.20293 11.7337 7.38008 12.0686 7.70476 12.2512L11.0996 14.2601C11.3948 14.4427 11.7786 14.4427 12.1033 14.2601L15.4982 12.2512C15.7933 12.0686 16 11.7337 16 11.3685V7.32025C16 6.95501 15.8228 6.62023 15.4982 6.43761L12.0738 4.39825Z" fill="#828282"/>
</svg>
