<svg width="63" height="35" viewBox="0 0 63 35" fill="none" xmlns="http://www.w3.org/2000/svg">
<path d="M22.0058 24.2577C22.0058 26.1845 21.5186 27.9607 20.5441 29.5864C19.6001 31.2121 18.3059 32.5067 16.6615 33.47C15.0171 34.4033 13.2204 34.8699 11.2715 34.8699C9.32254 34.8699 7.52587 34.4033 5.88145 33.47C4.23704 32.5067 2.9276 31.2121 1.95313 29.5864C1.00912 27.9607 0.537109 26.1845 0.537109 24.2577V12.7423C0.537109 10.8156 1.00912 9.03936 1.95313 7.41365C2.9276 5.78795 4.23704 4.50847 5.88145 3.57519C7.52587 2.61182 9.32254 2.13013 11.2715 2.13013C13.2204 2.13013 15.0171 2.61182 16.6615 3.57519C18.3059 4.50847 19.6001 5.78795 20.5441 7.41365C21.5186 9.03936 22.0058 10.8156 22.0058 12.7423V24.2577ZM2.18152 24.2577C2.18152 25.2813 2.37946 26.335 2.77534 27.4188L18.8997 7.95556C18.0775 6.69112 16.9965 5.68259 15.6566 4.92995C14.3167 4.17731 12.855 3.80099 11.2715 3.80099C9.62706 3.80099 8.10446 4.20741 6.70366 5.02026C5.33331 5.80301 4.23704 6.88681 3.41483 8.27167C2.59263 9.62641 2.18152 11.1166 2.18152 12.7423V24.2577ZM20.3614 12.7423C20.3614 11.7188 20.1635 10.6651 19.7676 9.58126L3.64322 29.0445C4.46543 30.3391 5.54648 31.3626 6.88637 32.1153C8.22626 32.8679 9.68796 33.2442 11.2715 33.2442C12.9159 33.2442 14.4233 32.8378 15.7936 32.025C17.1944 31.2121 18.3059 30.1283 19.1281 28.7736C19.9503 27.3887 20.3614 25.8834 20.3614 24.2577V12.7423Z" fill="#9F00FF"/>
<path d="M21.4695 22.3788C21.4695 24.3056 20.9822 26.0818 20.0078 27.7075C19.0637 29.3332 17.7695 30.6277 16.1251 31.5911C14.4807 32.5244 12.684 32.991 10.7351 32.991C8.78616 32.991 6.98949 32.5244 5.34508 31.5911C3.70066 30.6277 2.39122 29.3332 1.41675 27.7075C0.47274 26.0818 0.000732422 24.3056 0.000732422 22.3788V10.8634C0.000732422 8.93668 0.47274 7.16045 1.41675 5.53475C2.39122 3.90905 3.70066 2.62956 5.34508 1.69629C6.98949 0.73291 8.78616 0.251221 10.7351 0.251221C12.684 0.251221 14.4807 0.73291 16.1251 1.69629C17.7695 2.62956 19.0637 3.90905 20.0078 5.53475C20.9822 7.16045 21.4695 8.93668 21.4695 10.8634V22.3788ZM1.64515 22.3788C1.64515 23.4024 1.84308 24.4561 2.23896 25.5399L18.3633 6.07665C17.5411 4.81222 16.4601 3.80368 15.1202 3.05104C13.7803 2.2984 12.3186 1.92208 10.7351 1.92208C9.09068 1.92208 7.56808 2.32851 6.16728 3.14136C4.79694 3.9241 3.70066 5.0079 2.87846 6.39276C2.05625 7.74751 1.64515 9.23773 1.64515 10.8634V22.3788ZM19.825 10.8634C19.825 9.83985 19.6271 8.78615 19.2312 7.70235L3.10685 27.1656C3.92905 28.4601 5.0101 29.4837 6.34999 30.2364C7.68989 30.989 9.15159 31.3653 10.7351 31.3653C12.3795 31.3653 13.8869 30.9589 15.2572 30.1461C16.658 29.3332 17.7695 28.2494 18.5917 26.8947C19.4139 25.5098 19.825 24.0045 19.825 22.3788V10.8634Z" fill="#FFE302"/>
<path d="M21.7383 23.2701C21.7383 25.181 21.251 26.9427 20.2766 28.5551C19.3325 30.1675 18.0383 31.4514 16.3939 32.4069C14.7495 33.3325 12.9528 33.7953 11.0039 33.7953C9.05496 33.7953 7.25829 33.3325 5.61387 32.4069C3.96946 31.4514 2.66002 30.1675 1.68555 28.5551C0.741538 26.9427 0.269531 25.181 0.269531 23.2701V11.8491C0.269531 9.93812 0.741538 8.17645 1.68555 6.56407C2.66002 4.9517 3.96946 3.6827 5.61387 2.75708C7.25829 1.80159 9.05496 1.32385 11.0039 1.32385C12.9528 1.32385 14.7495 1.80159 16.3939 2.75708C18.0383 3.6827 19.3325 4.9517 20.2766 6.56407C21.251 8.17645 21.7383 9.93812 21.7383 11.8491V23.2701ZM1.91394 23.2701C1.91394 24.2853 2.11188 25.3303 2.50776 26.4052L18.6321 7.10153C17.8099 5.84746 16.7289 4.84719 15.389 4.10072C14.0491 3.35425 12.5874 2.98102 11.0039 2.98102C9.35948 2.98102 7.83688 3.38411 6.43608 4.1903C5.06574 4.96663 3.96946 6.04154 3.14725 7.41505C2.32505 8.75869 1.91394 10.2367 1.91394 11.8491V23.2701ZM20.0938 11.8491C20.0938 10.8339 19.8959 9.78883 19.5 8.71391L3.37564 28.0176C4.19785 29.3016 5.2789 30.3168 6.61879 31.0632C7.95869 31.8097 9.42039 32.1829 11.0039 32.1829C12.6483 32.1829 14.1557 31.7798 15.526 30.9736C16.9268 30.1675 18.0383 29.0925 18.8605 27.7489C19.6827 26.3754 20.0938 24.8824 20.0938 23.2701V11.8491Z" fill="#333333"/>
<path d="M32.1104 15.4968C35.1119 15.4968 37.3584 13.103 37.3584 8.90459C37.3584 4.7062 35.1119 2.31238 32.1104 2.31238C29.0905 2.31238 26.844 4.7062 26.844 8.90459C26.844 13.103 29.0905 15.4968 32.1104 15.4968ZM32.1104 13.858C30.0848 13.858 28.6854 12.2007 28.6854 8.90459C28.6854 5.60848 30.0848 3.95122 32.1104 3.95122C34.1175 3.95122 35.517 5.60848 35.517 8.90459C35.517 12.2007 34.1175 13.858 32.1104 13.858Z" fill="#333333"/>
<path d="M49.7839 15.3495L44.9042 8.68362L49.4525 2.45969H47.4454L43.873 7.41306L40.2639 2.45969H38.1647L42.713 8.73886L37.8701 15.3495H39.9877L43.7994 10.0278L47.6663 15.3495H49.7839Z" fill="#333333"/>
<path d="M55.5595 15.4968C58.5609 15.4968 60.8074 13.103 60.8074 8.90459C60.8074 4.7062 58.5609 2.31238 55.5595 2.31238C52.5396 2.31238 50.2931 4.7062 50.2931 8.90459C50.2931 13.103 52.5396 15.4968 55.5595 15.4968ZM55.5595 13.858C53.5339 13.858 52.1345 12.2007 52.1345 8.90459C52.1345 5.60848 53.5339 3.95122 55.5595 3.95122C57.5666 3.95122 58.966 5.60848 58.966 8.90459C58.966 12.2007 57.5666 13.858 55.5595 13.858Z" fill="#333333"/>
<path d="M36.643 32.6586H38.5764L32.7208 19.7688H30.8978L25.0605 32.6586H26.9572L28.3751 29.4362H35.2251L36.643 32.6586ZM29.0196 27.9631L31.8001 21.6471L34.5806 27.9631H29.0196Z" fill="#333333"/>
<path d="M51.1241 32.6586L48.0674 28.3314C49.872 27.6869 50.9032 26.2506 50.9032 24.2619C50.9032 21.4629 48.8776 19.7688 45.5263 19.7688H40.4992V32.6586H42.3406V28.7365H45.5263C45.8025 28.7365 46.0787 28.7181 46.3365 28.6996L49.117 32.6586H51.1241ZM45.471 27.1713H42.3406V21.3709H45.471C47.828 21.3709 49.0618 22.4205 49.0618 24.2619C49.0618 26.1033 47.828 27.1713 45.471 27.1713Z" fill="#333333"/>
<path d="M56.2579 32.6586H58.0809V21.3709H62.5002V19.7688H51.8385V21.3709H56.2579V32.6586Z" fill="#333333"/>
</svg>
