<svg width="32" height="30" viewBox="0 0 32 30" fill="none" xmlns="http://www.w3.org/2000/svg">
<g clip-path="url(#clip0_0_407)">
<path fill-rule="evenodd" clip-rule="evenodd" d="M9.1698 27.1217L13.3303 28.2272V26.7816L13.6699 26.4414H16.0472V28.1421V29.3326H13.5001L10.3585 27.972L9.1698 27.1217Z" fill="#CDBDB2"/>
<path fill-rule="evenodd" clip-rule="evenodd" d="M22.7547 27.1217L18.6792 28.2272V26.7816L18.3396 26.4414H15.9622V28.1421V29.3326H18.5094L21.6508 27.972L22.7547 27.1217Z" fill="#CDBDB2"/>
<path fill-rule="evenodd" clip-rule="evenodd" d="M13.6699 23.9755L13.3303 26.7816L13.7547 26.4414H18.1698L18.6792 26.7816L18.3396 23.9755L17.6604 23.5503L14.2641 23.6354L13.6699 23.9755Z" fill="#393939"/>
<path fill-rule="evenodd" clip-rule="evenodd" d="M11.3773 5.01288L13.4151 9.77478L14.3491 23.6354H17.6603L18.6792 9.77478L20.5471 5.01288H11.3773Z" fill="#F89C35"/>
<path fill-rule="evenodd" clip-rule="evenodd" d="M2.46232 15.4721L0.0849609 22.3598L6.02836 22.0197H9.84903V19.0436L9.67922 12.9211L8.83016 13.6014L2.46232 15.4721Z" fill="#F89D35"/>
<path fill-rule="evenodd" clip-rule="evenodd" d="M6.96222 16.2374L13.9245 16.4074L13.1604 19.9789L9.84901 19.1285L6.96222 16.2374Z" fill="#D87C30"/>
<path fill-rule="evenodd" clip-rule="evenodd" d="M6.96222 16.3224L9.84901 19.0435V21.7646L6.96222 16.3224Z" fill="#EA8D3A"/>
<path fill-rule="evenodd" clip-rule="evenodd" d="M9.84906 19.1285L13.2453 19.9788L14.3491 23.6354L13.5849 24.0605L9.84906 21.8496V19.1285Z" fill="#F89D35"/>
<path fill-rule="evenodd" clip-rule="evenodd" d="M9.84905 21.8496L9.1698 27.1217L13.6699 23.9755L9.84905 21.8496Z" fill="#EB8F35"/>
<path fill-rule="evenodd" clip-rule="evenodd" d="M13.9245 16.4074L14.3491 23.6354L13.0754 19.9364L13.9245 16.4074Z" fill="#EA8E3A"/>
<path fill-rule="evenodd" clip-rule="evenodd" d="M5.94336 21.9347L9.84902 21.8496L9.16977 27.1217L5.94336 21.9347Z" fill="#D87C30"/>
<path fill-rule="evenodd" clip-rule="evenodd" d="M1.95289 29.4177L9.16979 27.1217L5.94338 21.9347L0.0849609 22.3598L1.95289 29.4177Z" fill="#EB8F35"/>
<path fill-rule="evenodd" clip-rule="evenodd" d="M13.415 9.77478L9.76418 12.836L6.96222 16.2374L13.9245 16.4925L13.415 9.77478Z" fill="#E8821E"/>
<path fill-rule="evenodd" clip-rule="evenodd" d="M9.1698 27.1217L13.6699 23.9755L13.3303 26.6966V28.2272L10.2736 27.6319L9.1698 27.1217Z" fill="#DFCEC3"/>
<path fill-rule="evenodd" clip-rule="evenodd" d="M22.7547 27.1217L18.3396 23.9755L18.6792 26.6966V28.2272L21.7358 27.6319L22.7547 27.1217Z" fill="#DFCEC3"/>
<path fill-rule="evenodd" clip-rule="evenodd" d="M12.0566 17.938L12.9906 19.8939L9.67921 19.0436L12.0566 17.938Z" fill="#393939"/>
<path fill-rule="evenodd" clip-rule="evenodd" d="M1.86792 1.01633L13.4151 9.77475L11.4623 5.01285L1.86792 1.01633Z" fill="#E88F35"/>
<path fill-rule="evenodd" clip-rule="evenodd" d="M1.8679 1.01627L0.3396 5.69314L1.18866 10.7952L0.594317 11.1353L1.44337 11.9006L0.764128 12.4959L1.69809 13.3462L1.10375 13.8564L2.46224 15.5571L8.83017 13.6013C11.9434 11.107 13.4717 9.83146 13.4151 9.77477C13.3585 9.71808 9.50941 6.79858 1.8679 1.01627Z" fill="#8E5A30"/>
<path fill-rule="evenodd" clip-rule="evenodd" d="M29.4622 15.4721L31.8395 22.3598L25.8961 22.0197H22.0755V19.0436L22.2453 12.9211L23.0943 13.6014L29.4622 15.4721Z" fill="#F89D35"/>
<path fill-rule="evenodd" clip-rule="evenodd" d="M24.9623 16.2374L18 16.4074L18.7641 19.9789L22.0755 19.1285L24.9623 16.2374Z" fill="#D87C30"/>
<path fill-rule="evenodd" clip-rule="evenodd" d="M24.9623 16.3224L22.0755 19.0435V21.7646L24.9623 16.3224Z" fill="#EA8D3A"/>
<path fill-rule="evenodd" clip-rule="evenodd" d="M22.0754 19.1285L18.6792 19.9788L17.5754 23.6354L18.3396 24.0605L22.0754 21.8496V19.1285Z" fill="#F89D35"/>
<path fill-rule="evenodd" clip-rule="evenodd" d="M22.0755 21.8496L22.7547 27.1217L18.3396 24.0605L22.0755 21.8496Z" fill="#EB8F35"/>
<path fill-rule="evenodd" clip-rule="evenodd" d="M18 16.4074L17.5754 23.6354L18.8491 19.9364L18 16.4074Z" fill="#EA8E3A"/>
<path fill-rule="evenodd" clip-rule="evenodd" d="M25.9811 21.9347L22.0755 21.8496L22.7547 27.1217L25.9811 21.9347Z" fill="#D87C30"/>
<path fill-rule="evenodd" clip-rule="evenodd" d="M29.9716 29.4177L22.7547 27.1217L25.9811 21.9347L31.8395 22.3598L29.9716 29.4177Z" fill="#EB8F35"/>
<path fill-rule="evenodd" clip-rule="evenodd" d="M18.5095 9.77478L22.1603 12.836L24.9623 16.2374L18 16.4925L18.5095 9.77478Z" fill="#E8821E"/>
<path fill-rule="evenodd" clip-rule="evenodd" d="M19.8679 17.938L18.9339 19.8939L22.2453 19.0436L19.8679 17.938Z" fill="#393939"/>
<path fill-rule="evenodd" clip-rule="evenodd" d="M30.0566 1.01633L18.5094 9.77475L20.4622 5.01285L30.0566 1.01633Z" fill="#E88F35"/>
<path fill-rule="evenodd" clip-rule="evenodd" d="M30.0566 1.01627L31.5849 5.69314L30.7358 10.7952L31.3302 11.1353L30.4811 11.9006L31.1604 12.4959L30.2264 13.3462L30.8207 13.8564L29.4623 15.5571L23.0943 13.6013C19.9811 11.107 18.4528 9.83146 18.5094 9.77477C18.566 9.71808 22.4151 6.79858 30.0566 1.01627Z" fill="#8E5A30"/>
</g>
<defs>
<clipPath id="clip0_0_407">
<rect width="32" height="28.5714" fill="white" transform="translate(0 0.931244)"/>
</clipPath>
</defs>
</svg>
